<?xml version="1.0" encoding="UTF-8" standalone="no"?>
<svg
   xmlns:dc="http://purl.org/dc/elements/1.1/"
   xmlns:cc="http://creativecommons.org/ns#"
   xmlns:rdf="http://www.w3.org/1999/02/22-rdf-syntax-ns#"
   xmlns:svg="http://www.w3.org/2000/svg"
   xmlns="http://www.w3.org/2000/svg"
   xmlns:sodipodi="http://sodipodi.sourceforge.net/DTD/sodipodi-0.dtd"
   xmlns:inkscape="http://www.inkscape.org/namespaces/inkscape"
   sodipodi:docname="logo.svg"
   inkscape:version="1.0 (4035a4fb49, 2020-05-01)"
   id="svg8"
   version="1.1"
   viewBox="0 0 210 297"
   height="297mm"
   width="210mm">
  <defs
     id="defs2" />
  <sodipodi:namedview
     inkscape:window-maximized="1"
     inkscape:window-y="-8"
     inkscape:window-x="1912"
     inkscape:window-height="1017"
     inkscape:window-width="1920"
     showgrid="false"
     inkscape:document-rotation="0"
     inkscape:current-layer="g12"
     inkscape:document-units="mm"
     inkscape:cy="401.16014"
     inkscape:cx="453.87539"
     inkscape:zoom="2.8"
     inkscape:pageshadow="2"
     inkscape:pageopacity="0.0"
     borderopacity="1.0"
     bordercolor="#666666"
     pagecolor="#ffffff"
     id="base" />
  <metadata
     id="metadata5">
    <rdf:RDF>
      <cc:Work
         rdf:about="">
        <dc:format>image/svg+xml</dc:format>
        <dc:type
           rdf:resource="http://purl.org/dc/dcmitype/StillImage" />
        <dc:title></dc:title>
      </cc:Work>
    </rdf:RDF>
  </metadata>
  <g
     id="layer1"
     inkscape:groupmode="layer"
     inkscape:label="Layer 1">
    <g
       transform="matrix(0.26458333,0,0,0.26458333,91.386892,92.635053)"
       id="g30">
      <g
         transform="translate(0,-952.36218)"
         id="g12">
        <path
           sodipodi:nodetypes="scscscccscccscscscscscccsssssccscscssccscccsssc"
           style="color:#000000;fill:#fcbf49;fill-opacity:1;enable-background:accumulate"
           d="m -68.500003,888.7193 c -3.888891,0 -7.611101,2.4581 -8.90625,6.3438 -0.335431,0.9981 0.26752,2.2114 1.26563,2.5468 0.99811,0.3355 2.211439,-0.2675 2.54687,-1.2656 0.704849,-2.1146 2.98264,-3.6249 5.09375,-3.6249 2.999996,0 4.999996,2.3332 4.999996,3.9999 -0.11082,2.6946 -1.32841,5.9573 -3.999996,6 h -23 c -1.056421,-0.015 -2.02784,0.9435 -2.02784,2 0,1.0565 0.971419,2.0146 2.02784,2 h 23 c 5.459587,-0.4491 7.957646,-5.4176 7.999996,-10 0,-4.3332 -4,-7.9999 -8.999996,-8 z m -28.1875,22 c -1.047197,0.049 -1.955347,1.0465 -1.906257,2.0937 0.0491,1.0472 1.04656,1.9554 2.093757,1.9063 h 44.999997 c 2.555559,0 4.116879,0.7459 5.21875,2.0312 1.101869,1.2857 1.78125,3.3021 1.78125,5.9689 0,2.9285 -1.144261,4.7316 -2.84375,6.0311 -1.69949,1.2999 -4.056251,1.9688 -6.156251,1.9688 -3,0 -6.309789,-2.4892 -7.0625,-5.5 -0.20437,-1.0648 -1.39765,-1.8264 -2.44949,-1.5635 -1.05184,0.2631 -1.74628,1.4966 -1.42551,2.5323 1.247291,4.989 5.9375,8.5312 10.9375,8.5312 2.900001,0 6.04324,-0.8621 8.593751,-2.8125 2.55051,-1.9504 4.40625,-5.1161 4.40625,-9.1874 0,-3.3334 -0.820621,-6.3481 -2.71875,-8.5626 -1.898131,-2.2145 -4.836811,-3.4375 -8.28125,-3.4375 z m -1.999997,8 c -1.0472,0.049 -1.95535,1.0465 -1.90626,2.0938 0.0491,1.0472 1.04656,1.9554 2.09376,1.9063 h 16.999997 c 1.666669,0 2.56515,0.3779 3.09375,0.9061 0.528599,0.5289 0.90625,1.4271 0.90625,3.0938 0,1.0556 -0.396,2.1386 -0.96875,2.875 -0.57275,0.7364 -1.19792,1.125 -2.03125,1.125 -1.736321,-0.114 -3.064971,-0.6873 -4.21875,-1.9062 -0.40149,-1.0344 -1.766721,-1.5615 -2.75916,-1.0653 -0.99243,0.4962 -1.38993,1.9047 -0.80334,2.8465 1.75642,2.7287 4.77593,4.098 7.78125,4.125 2.166669,0 4.0415,-1.1427 5.21875,-2.6562 1.17725,-1.5137 1.78125,-3.3994 1.78125,-5.3438 0,-2.3333 -0.62235,-4.4661 -2.09375,-5.9375 -1.471401,-1.4714 -3.57292,-2.0625 -5.90625,-2.0625 z"
           fill="#000000"
           stroke="none"
           marker="none"
           visibility="visible"
           display="inline"
           overflow="visible"
           id="path10" />
        <path
           id="path885"
           overflow="visible"
           display="inline"
           visibility="visible"
           marker="none"
           stroke="none"
           fill="#000000"
           d="m 274.53572,887.07645 c -11,0 -16,8 -16,14 0,6.9126 2.93031,12.8445 8.78125,16.8438 0.0776,-1.98 1.83315,-3.75 3.8125,-3.8438 1.96713,0 4.00536,0 6,0 -2.08862,-0.1144 -3.88696,-2.1132 -3.78087,-4.2022 0.10609,-2.0892 2.09765,-3.8954 4.18712,-3.7977 h 23 c 1.6168,-0.3439 1.98357,-2.5657 2,-4.0001 0,-0.3333 -1,-2 -3,-2 -1.22222,0 -2.80904,1.0209 -3.21875,2.25 -0.52859,2.1376 -3.06496,3.5321 -5.15313,2.8333 -2.08818,-0.699 -3.27407,-3.3394 -2.40937,-5.3645 1.59029,-4.7709 6.00347,-7.7188 10.78125,-7.7188 6,0 11,4.3334 11,10 -0.0396,6.119 -4.28371,11.8765 -10,12 h 16 c 3.823,0 7.35588,1.4075 9.65625,4 h 1.34375 c 9,-4 15,-9 15,-22 0,-11.9999 -15,-19.99998 -27,-15.99988 -2,-9.0001 -12,-14.0001 -20,-14.0001 -10.97623,0.1025 -21.9765,13.088 -21,20.99998 z m 25,7 c -3.88889,0 -7.6111,2.4581 -8.90625,6.3438 -0.33543,0.9981 0.26752,2.2114 1.26563,2.5468 0.99811,0.3355 2.21144,-0.2675 2.54687,-1.2656 0.70485,-2.1146 2.98264,-3.625 5.09375,-3.625 3,0 5,2.3333 5,4 -0.11082,2.6946 -1.32841,5.9573 -4,6 h -23 c -1.05642,-0.015 -2.02784,0.9435 -2.02784,2 0,1.0565 0.97142,2.0146 2.02784,2 h 23 c 5.45959,-0.4491 7.95765,-5.4176 8,-10 0,-4.3333 -4,-8 -9,-8 z m -28.1875,22 c -1.0472,0.049 -1.95535,1.0465 -1.90626,2.0937 0.0491,1.0472 1.04656,1.9554 2.09376,1.9063 h 45 c 2.55556,0 4.11688,0.7459 5.21875,2.0312 1.10187,1.2857 1.78125,3.3021 1.78125,5.9689 0,2.9285 -1.14426,4.7316 -2.84375,6.0311 -1.69949,1.2999 -4.05625,1.9688 -6.15625,1.9688 -3,0 -6.30979,-2.4892 -7.0625,-5.5 -0.20437,-1.0648 -1.39765,-1.8264 -2.44949,-1.5635 -1.05184,0.2631 -1.74628,1.4966 -1.42551,2.5323 1.24729,4.989 5.9375,8.5312 10.9375,8.5312 2.9,0 6.04324,-0.8621 8.59375,-2.8125 2.55051,-1.9504 4.40625,-5.1161 4.40625,-9.1874 0,-3.3334 -0.82062,-6.3481 -2.71875,-8.5626 -1.89813,-2.2145 -4.83681,-3.4375 -8.28125,-3.4375 -15.05819,0 -30.14268,0 -45.1875,0 z m -2,8 c -1.0472,0.049 -1.95535,1.0465 -1.90626,2.0938 0.0491,1.0472 1.04656,1.9554 2.09376,1.9063 h 17 c 1.66667,0 2.56515,0.3779 3.09375,0.9061 0.5286,0.5289 0.90625,1.4271 0.90625,3.0938 0,1.0556 -0.396,2.1386 -0.96875,2.875 -0.57275,0.7364 -1.19792,1.125 -2.03125,1.125 -1.73632,-0.114 -3.06497,-0.6873 -4.21875,-1.9062 -0.40149,-1.0344 -1.76672,-1.5615 -2.75916,-1.0653 -0.99243,0.4962 -1.38993,1.9047 -0.80334,2.8465 1.75642,2.7287 4.77593,4.098 7.78125,4.125 2.16667,0 4.0415,-1.1427 5.21875,-2.6562 1.17725,-1.5137 1.78125,-3.3994 1.78125,-5.3438 0,-2.3333 -0.62235,-4.4661 -2.09375,-5.9375 -1.4714,-1.4714 -3.57292,-2.0625 -5.90625,-2.0625 -5.72334,0 -11.47799,0 -17.1875,0 z"
           style="color:#000000;fill:#000000;fill-opacity:1;enable-background:accumulate" />
        <path
           sodipodi:nodetypes="cscccscccscccsccsccsccc"
           style="color:#000000;fill:#f77f00;fill-opacity:1;enable-background:accumulate"
           d="m -93.499997,881.7193 c -11.000003,0 -16.000003,8 -16.000003,14 0,6.9126 2.93031,12.8445 8.78125,16.8438 0.0776,-1.98 1.83315,-3.75 3.812503,-3.8438 h 6 c -2.08862,-0.1144 -3.88696,-2.1132 -3.78087,-4.2022 0.10609,-2.0892 2.09765,-3.8954 4.18712,-3.7977 h 22.999994 c 1.6168,-0.3439 1.98357,-2.5657 2,-4.0001 0,-0.3333 -1,-2 -3,-2 -1.222217,0 -2.809034,1.0209 -3.218744,2.25 -0.52859,2.1376 -3.06496,3.5321 -5.15313,2.8333 -2.08818,-0.699 -3.27407,-3.3394 -2.40937,-5.3645 1.59029,-4.7709 6.00347,-7.7188 10.781244,-7.7188 6,0 11,4.3334 11,10 -0.0396,6.119 -4.28371,11.8765 -10,12 h 16 c 3.823,0 7.35588,1.4075 9.65625,4 h 1.34375 c 9,-4 15,-9 15,-22 0,-11.9999 -15,-19.99998 -27,-15.99988 -2,-9.0001 -12,-14.0001 -19.999994,-14.0001 -10.97623,0.1025 -21.9765,13.088 -21,20.99998 z"
           fill="#000000"
           stroke="none"
           marker="none"
           visibility="visible"
           display="inline"
           overflow="visible"
           id="path885-2" />
        <path
           id="path10-4"
           overflow="visible"
           display="inline"
           visibility="visible"
           marker="none"
           stroke="none"
           fill="#000000"
           d="m -69.970706,981.81686 c -3.88889,0 -7.6111,2.4581 -8.90625,6.3438 -0.33543,0.9981 0.26752,2.2114 1.26563,2.5468 0.99811,0.3355 2.21144,-0.2675 2.54687,-1.2656 0.70485,-2.1146 2.98264,-3.6249 5.09375,-3.6249 2.99999,0 4.99999,2.3332 4.99999,3.9999 -0.11082,2.6946 -1.32841,5.9573 -3.99999,6 h -23 c -1.05642,-0.015 -2.02784,0.9435 -2.02784,2 0,1.0565 0.97142,2.0146 2.02784,2 h 23 c 5.45958,-0.4491 7.95764,-5.4176 7.99999,-10 0,-4.3332 -4,-7.9999 -8.99999,-8 z m -28.1875,22.00004 c -1.0472,0.049 -1.955354,1.0465 -1.906264,2.0937 0.0491,1.0472 1.046564,1.9554 2.093764,1.9063 h 44.99999 c 2.55556,0 4.11688,0.7459 5.21875,2.0312 1.10187,1.2857 1.78125,3.3021 1.78125,5.9689 0,2.9285 -1.14426,4.7316 -2.84375,6.0311 -1.69949,1.2999 -4.05625,1.9688 -6.15625,1.9688 -3,0 -6.30979,-2.4892 -7.0625,-5.5 -0.20437,-1.0648 -1.39765,-1.8264 -2.44949,-1.5635 -1.05184,0.2631 -1.74628,1.4966 -1.42551,2.5323 1.24729,4.989 5.9375,8.5312 10.9375,8.5312 2.9,0 6.04324,-0.8621 8.59375,-2.8125 2.55051,-1.9504 4.40625,-5.1161 4.40625,-9.1874 0,-3.3334 -0.82062,-6.3481 -2.71875,-8.5626 -1.89813,-2.2145 -4.83681,-3.4375 -8.28125,-3.4375 z m -2.000004,8 c -1.0472,0.049 -1.95535,1.0465 -1.90626,2.0938 0.0491,1.0472 1.04656,1.9554 2.093764,1.9063 h 17 c 1.66667,0 2.56515,0.3779 3.09375,0.9061 0.5286,0.5289 0.90625,1.4271 0.90625,3.0938 0,1.0556 -0.396,2.1386 -0.96875,2.875 -0.57275,0.7364 -1.19792,1.125 -2.03125,1.125 -1.73632,-0.114 -3.06497,-0.6873 -4.21875,-1.9062 -0.40149,-1.0344 -1.76672,-1.5615 -2.75916,-1.0653 -0.99243,0.4962 -1.38993,1.9047 -0.80334,2.8465 1.75642,2.7287 4.77593,4.098 7.78125,4.125 2.16667,0 4.0415,-1.1427 5.21875,-2.6562 1.17725,-1.5137 1.78125,-3.3994 1.78125,-5.3438 0,-2.3333 -0.62235,-4.4661 -2.09375,-5.9375 -1.4714,-1.4714 -3.57292,-2.0625 -5.90625,-2.0625 z"
           style="color:#000000;fill:#d62828;fill-opacity:1;enable-background:accumulate"
           sodipodi:nodetypes="scscscccscccscscscscscccsssssccscscssccscccsssc" />
        <path
           id="path885-2-0"
           overflow="visible"
           display="inline"
           visibility="visible"
           marker="none"
           stroke="none"
           fill="#000000"
           d="m -94.970706,974.81686 c -11.000004,0 -16.000004,8 -16.000004,14 0,6.9126 2.93031,12.84454 8.78125,16.84384 0.0776,-1.98 1.83315,-3.75 3.812504,-3.8438 h 6 c -2.08862,-0.1144 -3.88696,-2.11324 -3.78087,-4.20224 0.10609,-2.0892 2.09765,-3.8954 4.18712,-3.7977 h 23 c 1.6168,-0.3439 1.98357,-2.5657 2,-4.0001 0,-0.3333 -1,-2 -3,-2 -1.22222,0 -2.80904,1.0209 -3.21875,2.25 -0.52859,2.1376 -3.06496,3.5321 -5.15313,2.8333 -2.08818,-0.699 -3.27407,-3.3394 -2.40937,-5.3645 1.59029,-4.7709 6.00347,-7.7188 10.78125,-7.7188 6,0 11,4.3334 11,10 -0.0396,6.119 -4.28371,11.87654 -10,12.00004 h 16 c 3.823,0 7.35588,1.4075 9.65625,4 h 1.34375 c 9,-4 15,-9.00004 15,-22.00004 0,-11.9999 -15,-19.99998 -27,-15.99988 -2,-9.0001 -12,-14.0001 -20,-14.0001 -10.97623,0.1025 -21.9765,13.088 -21,20.99998 z"
           style="color:#000000;fill:#f77f00;fill-opacity:1;enable-background:accumulate"
           sodipodi:nodetypes="cscccscccscccsccsccsccc" />
        <path
           id="path10-5"
           overflow="visible"
           display="inline"
           visibility="visible"
           marker="none"
           stroke="none"
           fill="#000000"
           d="m 52.886439,891.10258 c -3.88889,0 -7.6111,2.4581 -8.90625,6.3438 -0.33543,0.9981 0.26752,2.2114 1.26563,2.5468 0.99811,0.3355 2.21144,-0.2675 2.54687,-1.2656 0.70485,-2.1146 2.98264,-3.6249 5.09375,-3.6249 2.99999,0 4.99999,2.3332 4.99999,3.9999 -0.11082,2.6946 -1.32841,5.9573 -3.99999,6 h -23 c -1.05642,-0.015 -2.02784,0.9435 -2.02784,2 0,1.0565 0.97142,2.0146 2.02784,2 h 23 c 5.45958,-0.4491 7.95764,-5.4176 7.99999,-10 0,-4.3332 -4,-7.9999 -8.99999,-8 z m -28.1875,22 c -1.0472,0.049 -1.95535,1.0465 -1.90626,2.0937 0.0491,1.0472 1.04656,1.95538 2.09376,1.9063 h 44.99999 c 2.55556,0 4.11688,0.74588 5.21875,2.03118 1.10187,1.2857 1.78125,3.3021 1.78125,5.9689 0,2.9285 -1.14426,4.7316 -2.84375,6.0311 -1.69949,1.2999 -4.05625,1.9688 -6.15625,1.9688 -3,0 -6.30979,-2.4892 -7.0625,-5.5 -0.20437,-1.0648 -1.39765,-1.8264 -2.44949,-1.5635 -1.05184,0.2631 -1.74628,1.4966 -1.42551,2.5323 1.24729,4.989 5.9375,8.5312 10.9375,8.5312 2.9,0 6.04324,-0.8621 8.59375,-2.8125 2.55051,-1.9504 4.40625,-5.1161 4.40625,-9.1874 0,-3.3334 -0.82062,-6.3481 -2.71875,-8.56258 -1.89813,-2.2145 -4.83681,-3.4375 -8.28125,-3.4375 z m -2,7.99998 c -1.0472,0.049 -1.95535,1.0465 -1.90626,2.0938 0.0491,1.0472 1.04656,1.9554 2.09376,1.9063 h 17 c 1.66667,0 2.56515,0.3779 3.09375,0.9061 0.5286,0.5289 0.90625,1.4271 0.90625,3.0938 0,1.0556 -0.396,2.1386 -0.96875,2.875 -0.57275,0.7364 -1.19792,1.125 -2.03125,1.125 -1.73632,-0.114 -3.06497,-0.6873 -4.21875,-1.9062 -0.40149,-1.0344 -1.76672,-1.5615 -2.75916,-1.0653 -0.99243,0.4962 -1.38993,1.9047 -0.80334,2.8465 1.75642,2.7287 4.77593,4.098 7.78125,4.125 2.16667,0 4.0415,-1.1427 5.21875,-2.6562 1.17725,-1.5137 1.78125,-3.3994 1.78125,-5.3438 0,-2.3333 -0.62235,-4.4661 -2.09375,-5.9375 -1.4714,-1.4714 -3.57292,-2.0625 -5.90625,-2.0625 z"
           style="color:#000000;fill:#e9c46a;fill-opacity:1;enable-background:accumulate"
           sodipodi:nodetypes="scscscccscccscscscscscccsssssccscscssccscccsssc" />
        <path
           id="path885-2-4"
           overflow="visible"
           display="inline"
           visibility="visible"
           marker="none"
           stroke="none"
           fill="#000000"
           d="m 27.886439,884.10258 c -11,0 -16,8 -16,14 0,6.9126 2.93031,12.8445 8.78125,16.8438 0.0776,-1.98 1.83315,-3.75 3.8125,-3.8438 h 6 c -2.08862,-0.1144 -3.88696,-2.1132 -3.78087,-4.2022 0.10609,-2.0892 2.09765,-3.8954 4.18712,-3.7977 h 23 c 1.6168,-0.3439 1.98357,-2.5657 2,-4.0001 0,-0.3333 -1,-2 -3,-2 -1.22222,0 -2.80904,1.0209 -3.21875,2.25 -0.52859,2.1376 -3.06496,3.5321 -5.15313,2.8333 -2.08818,-0.699 -3.27407,-3.3394 -2.40937,-5.3645 1.59029,-4.7709 6.00347,-7.7188 10.78125,-7.7188 6,0 11,4.3334 11,10 -0.0396,6.119 -4.28371,11.8765 -10,12 h 16 c 3.823,0 7.35588,1.4075 9.65625,4 h 1.34375 c 9,-4 15,-9 15,-22 0,-11.9999 -15,-19.99998 -27,-15.99988 -2,-9.0001 -12,-14.0001 -20,-14.0001 -10.97623,0.1025 -21.9765,13.088 -21,20.99998 z"
           style="color:#000000;fill:#f4a261;fill-opacity:1;enable-background:accumulate"
           sodipodi:nodetypes="cscccscccscccsccsccsccc" />
        <path
           id="path10-0"
           overflow="visible"
           display="inline"
           visibility="visible"
           marker="none"
           stroke="none"
           fill="#000000"
           d="m 42.529296,988.24543 c -3.88889,0 -7.6111,2.4581 -8.90625,6.3438 -0.33543,0.9981 0.26752,2.2114 1.26563,2.5468 0.99811,0.3355 2.21144,-0.2675 2.54687,-1.2656 0.70485,-2.1146 2.98264,-3.6249 5.09375,-3.6249 2.99999,0 4.99999,2.3332 4.99999,3.9999 -0.11082,2.6946 -1.32841,5.95727 -3.99999,5.99997 h -23 c -1.05642,-0.015 -2.02784,0.9435 -2.02784,2 0,1.0565 0.97142,2.0146 2.02784,2 h 23 c 5.45958,-0.4491 7.95764,-5.4176 7.99999,-9.99997 0,-4.3332 -4,-7.9999 -8.99999,-8 z m -28.1875,21.99997 c -1.0472,0.049 -1.95535,1.0465 -1.90626,2.0937 0.0491,1.0472 1.04656,1.9554 2.09376,1.9063 h 44.99999 c 2.55556,0 4.11688,0.7459 5.21875,2.0312 1.10187,1.2857 1.78125,3.3021 1.78125,5.9689 0,2.9285 -1.14426,4.7316 -2.84375,6.0311 -1.69949,1.2999 -4.05625,1.9688 -6.15625,1.9688 -3,0 -6.30979,-2.4892 -7.0625,-5.5 -0.20437,-1.0648 -1.39765,-1.8264 -2.44949,-1.5635 -1.05184,0.2631 -1.74628,1.4966 -1.42551,2.5323 1.24729,4.989 5.9375,8.5312 10.9375,8.5312 2.9,0 6.04324,-0.8621 8.59375,-2.8125 2.55051,-1.9504 4.40625,-5.1161 4.40625,-9.1874 0,-3.3334 -0.82062,-6.3481 -2.71875,-8.5626 -1.89813,-2.2145 -4.83681,-3.4375 -8.28125,-3.4375 z m -2,8 c -1.0472,0.049 -1.95535,1.0465 -1.90626,2.0938 0.0491,1.0472 1.04656,1.9554 2.09376,1.9063 h 17 c 1.66667,0 2.56515,0.3779 3.09375,0.9061 0.5286,0.5289 0.90625,1.4271 0.90625,3.0938 0,1.0556 -0.396,2.1386 -0.96875,2.875 -0.57275,0.7364 -1.19792,1.125 -2.03125,1.125 -1.73632,-0.114 -3.06497,-0.6873 -4.21875,-1.9062 -0.40149,-1.0344 -1.76672,-1.5615 -2.75916,-1.0653 -0.99243,0.4962 -1.38993,1.9047 -0.80334,2.8465 1.75642,2.7287 4.77593,4.098 7.78125,4.125 2.16667,0 4.0415,-1.1427 5.21875,-2.6562 1.17725,-1.5137 1.78125,-3.3994 1.78125,-5.3438 0,-2.3333 -0.62235,-4.4661 -2.09375,-5.9375 -1.4714,-1.4714 -3.57292,-2.0625 -5.90625,-2.0625 z"
           style="color:#000000;fill:#ffd670;fill-opacity:1;enable-background:accumulate"
           sodipodi:nodetypes="scscscccscccscscscscscccsssssccscscssccscccsssc" />
        <path
           id="path885-2-1"
           overflow="visible"
           display="inline"
           visibility="visible"
           marker="none"
           stroke="none"
           fill="#000000"
           d="m 17.529296,981.24543 c -11.0000003,0 -16.0000003,8 -16.0000003,14 0,6.91257 2.93031,12.84447 8.7812503,16.84377 0.0776,-1.98 1.83315,-3.75 3.8125,-3.8438 h 6 c -2.08862,-0.1144 -3.88696,-2.1132 -3.78087,-4.2022 0.10609,-2.0892 2.09765,-3.8954 4.18712,-3.7977 h 23 c 1.6168,-0.34387 1.98357,-2.56567 2,-4.00007 0,-0.3333 -1,-2 -3,-2 -1.22222,0 -2.80904,1.0209 -3.21875,2.25 -0.52859,2.1376 -3.06496,3.53207 -5.15313,2.8333 -2.08818,-0.699 -3.27407,-3.3394 -2.40937,-5.3645 1.59029,-4.7709 6.00347,-7.7188 10.78125,-7.7188 6,0 11,4.3334 11,10 -0.0396,6.11897 -4.28371,11.87647 -10,11.99997 h 16 c 3.823,0 7.35588,1.4075 9.65625,4 h 1.34375 c 9,-4 15,-9 15,-21.99997 0,-11.9999 -15,-19.99998 -27,-15.99988 -2,-9.0001 -12,-14.0001 -20,-14.0001 -10.97623,0.1025 -21.9765,13.088 -21,20.99998 z"
           style="color:#000000;fill:#ff9770;fill-opacity:1;enable-background:accumulate"
           sodipodi:nodetypes="cscccscccscccsccsccsccc" />
        <path
           sodipodi:nodetypes="scscscccscccscscscscscccsssssccscscssccscccsssc"
           style="color:#000000;fill:#7c3c21;fill-opacity:1;enable-background:accumulate"
           d="m 175.74358,889.67402 c -3.88889,0 -7.6111,2.4581 -8.90625,6.3438 -0.33543,0.9981 0.26752,2.2114 1.26563,2.5468 0.99811,0.3355 2.21144,-0.2675 2.54687,-1.2656 0.70485,-2.1146 2.98264,-3.6249 5.09375,-3.6249 2.99999,0 4.99999,2.3332 4.99999,3.9999 -0.11082,2.6946 -1.32841,5.95727 -3.99999,5.99997 h -23 c -1.05642,-0.015 -2.02784,0.9435 -2.02784,2 0,1.0565 0.97142,2.0146 2.02784,2 h 23 c 5.45958,-0.4491 7.95764,-5.4176 7.99999,-9.99997 0,-4.3332 -4,-7.9999 -8.99999,-8 z m -28.1875,21.99997 c -1.0472,0.049 -1.95535,1.0465 -1.90626,2.0937 0.0491,1.0472 1.04656,1.9554 2.09376,1.9063 h 44.99999 c 2.55556,0 4.11688,0.7459 5.21875,2.0312 1.10187,1.2857 1.78125,3.3021 1.78125,5.9689 0,2.92852 -1.14426,4.73162 -2.84375,6.03112 -1.69949,1.2999 -4.05625,1.9688 -6.15625,1.9688 -3,0 -6.30979,-2.4892 -7.0625,-5.5 -0.20437,-1.0648 -1.39765,-1.8264 -2.44949,-1.5635 -1.05184,0.2631 -1.74628,1.4966 -1.42551,2.5323 1.24729,4.989 5.9375,8.5312 10.9375,8.5312 2.9,0 6.04324,-0.8621 8.59375,-2.8125 2.55051,-1.9504 4.40625,-5.1161 4.40625,-9.18742 0,-3.3334 -0.82062,-6.3481 -2.71875,-8.5626 -1.89813,-2.2145 -4.83681,-3.4375 -8.28125,-3.4375 z m -2,8 c -1.0472,0.049 -1.95535,1.0465 -1.90626,2.0938 0.0491,1.0472 1.04656,1.9554 2.09376,1.9063 h 17 c 1.66667,0 2.56515,0.3779 3.09375,0.90612 0.5286,0.5289 0.90625,1.4271 0.90625,3.0938 0,1.0556 -0.396,2.1386 -0.96875,2.875 -0.57275,0.7364 -1.19792,1.125 -2.03125,1.125 -1.73632,-0.114 -3.06497,-0.6873 -4.21875,-1.9062 -0.40149,-1.0344 -1.76672,-1.5615 -2.75916,-1.0653 -0.99243,0.4962 -1.38993,1.9047 -0.80334,2.8465 1.75642,2.7287 4.77593,4.098 7.78125,4.125 2.16667,0 4.0415,-1.1427 5.21875,-2.6562 1.17725,-1.5137 1.78125,-3.3994 1.78125,-5.3438 0,-2.3333 -0.62235,-4.46612 -2.09375,-5.93752 -1.4714,-1.4714 -3.57292,-2.0625 -5.90625,-2.0625 z"
           fill="#000000"
           stroke="none"
           marker="none"
           visibility="visible"
           display="inline"
           overflow="visible"
           id="path10-0-1" />
        <path
           sodipodi:nodetypes="cscccscccscccsccsccsccc"
           style="color:#000000;fill:#ec823a;fill-opacity:1;enable-background:accumulate"
           d="m 150.74358,882.67402 c -11,0 -16,8 -16,14 0,6.91257 2.93031,12.84447 8.78125,16.84377 0.0776,-1.98 1.83315,-3.75 3.8125,-3.8438 h 6 c -2.08862,-0.1144 -3.88696,-2.1132 -3.78087,-4.2022 0.10609,-2.0892 2.09765,-3.8954 4.18712,-3.7977 h 23 c 1.6168,-0.34387 1.98357,-2.56567 2,-4.00007 0,-0.3333 -1,-2 -3,-2 -1.22222,0 -2.80904,1.0209 -3.21875,2.25 -0.52859,2.1376 -3.06496,3.53207 -5.15313,2.8333 -2.08818,-0.699 -3.27407,-3.3394 -2.40937,-5.3645 1.59029,-4.7709 6.00347,-7.7188 10.78125,-7.7188 6,0 11,4.3334 11,10 -0.0396,6.11897 -4.28371,11.87647 -10,11.99997 h 16 c 3.823,0 7.35588,1.4075 9.65625,4 h 1.34375 c 9,-4 15,-9 15,-21.99997 0,-11.9999 -15,-19.99998 -27,-15.99988 -2,-9.0001 -12,-14.0001 -20,-14.0001 -10.97623,0.1025 -21.9765,13.088 -21,20.99998 z"
           fill="#000000"
           stroke="none"
           marker="none"
           visibility="visible"
           display="inline"
           overflow="visible"
           id="path885-2-1-5" />
        <path
           sodipodi:nodetypes="scscscccscccscscscscscccsssssccscscssccscccsssc"
           style="color:#000000;fill:#cf7500;fill-opacity:1;enable-background:accumulate"
           d="m 171.81501,1000.0312 c -3.88889,0 -7.6111,2.4581 -8.90625,6.3438 -0.33543,0.9981 0.26752,2.2114 1.26563,2.5468 0.99811,0.3355 2.21144,-0.2675 2.54687,-1.2656 0.70485,-2.1146 2.98264,-3.6249 5.09375,-3.6249 2.99999,0 4.99999,2.3332 4.99999,3.9999 -0.11082,2.6946 -1.32841,5.9572 -3.99999,5.9999 h -23 c -1.05642,-0.015 -2.02784,0.9435 -2.02784,2 0,1.0565 0.97142,2.0146 2.02784,2 h 23 c 5.45958,-0.4491 7.95764,-5.4176 7.99999,-9.9999 0,-4.3332 -4,-7.9999 -8.99999,-8 z m -28.1875,21.9999 c -1.0472,0.049 -1.95535,1.0465 -1.90626,2.0937 0.0491,1.0472 1.04656,1.9554 2.09376,1.9063 H 188.815 c 2.55556,0 4.11688,0.7459 5.21875,2.0312 1.10187,1.2857 1.78125,3.3021 1.78125,5.9689 0,2.9285 -1.14426,4.7316 -2.84375,6.0311 -1.69949,1.2999 -4.05625,1.9688 -6.15625,1.9688 -3,0 -6.30979,-2.4892 -7.0625,-5.5 -0.20437,-1.0648 -1.39765,-1.8264 -2.44949,-1.5635 -1.05184,0.2631 -1.74628,1.4966 -1.42551,2.5323 1.24729,4.989 5.9375,8.5312 10.9375,8.5312 2.9,0 6.04324,-0.8621 8.59375,-2.8125 2.55051,-1.9504 4.40625,-5.1161 4.40625,-9.1874 0,-3.3334 -0.82062,-6.3481 -2.71875,-8.5626 -1.89813,-2.2145 -4.83681,-3.4375 -8.28125,-3.4375 z m -2,8 c -1.0472,0.049 -1.95535,1.0465 -1.90626,2.0938 0.0491,1.0472 1.04656,1.9554 2.09376,1.9063 h 17 c 1.66667,0 2.56515,0.3779 3.09375,0.9061 0.5286,0.5289 0.90625,1.4271 0.90625,3.0938 0,1.0556 -0.396,2.1386 -0.96875,2.875 -0.57275,0.7364 -1.19792,1.125 -2.03125,1.125 -1.73632,-0.114 -3.06497,-0.6873 -4.21875,-1.9062 -0.40149,-1.0344 -1.76672,-1.5615 -2.75916,-1.0653 -0.99243,0.4962 -1.38993,1.9047 -0.80334,2.8465 1.75642,2.7287 4.77593,4.098 7.78125,4.125 2.16667,0 4.0415,-1.1427 5.21875,-2.6562 1.17725,-1.5137 1.78125,-3.3994 1.78125,-5.3438 0,-2.3333 -0.62235,-4.4661 -2.09375,-5.9375 -1.4714,-1.4714 -3.57292,-2.0625 -5.90625,-2.0625 z"
           fill="#000000"
           stroke="none"
           marker="none"
           visibility="visible"
           display="inline"
           overflow="visible"
           id="path10-0-7" />
        <path
           sodipodi:nodetypes="cscccscccscccsccsccsccc"
           style="color:#000000;fill:#f0a500;fill-opacity:1;enable-background:accumulate"
           d="m 146.81501,993.03116 c -11,0 -16,8.00004 -16,14.00004 0,6.9125 2.93031,12.8444 8.78125,16.8437 0.0776,-1.98 1.83315,-3.75 3.8125,-3.8438 h 6 c -2.08862,-0.1144 -3.88696,-2.1132 -3.78087,-4.2022 0.10609,-2.0892 2.09765,-3.8954 4.18712,-3.7977 h 23 c 1.6168,-0.3438 1.98357,-2.5656 2,-4 0,-0.3333 -1,-2 -3,-2 -1.22222,0 -2.80904,1.0209 -3.21875,2.25 -0.52859,2.1376 -3.06496,3.532 -5.15313,2.8333 -2.08818,-0.699 -3.27407,-3.3394 -2.40937,-5.3645 1.59029,-4.7709 6.00347,-7.71884 10.78125,-7.71884 6,0 11,4.33344 11,10.00004 -0.0396,6.1189 -4.28371,11.8764 -10,11.9999 h 16 c 3.823,0 7.35588,1.4075 9.65625,4 h 1.34375 c 9,-4 15,-9 15,-21.9999 0,-11.99994 -15,-20.00002 -27,-15.99992 -2,-9.0001 -12,-14.0001 -20,-14.0001 -10.97623,0.1025 -21.9765,13.088 -21,20.99998 z"
           fill="#000000"
           stroke="none"
           marker="none"
           visibility="visible"
           display="inline"
           overflow="visible"
           id="path885-2-1-6" />
      </g>
    </g>
  </g>
</svg>
